<?xml version="1.0" standalone="no"?>
<!DOCTYPE svg PUBLIC "-//W3C//DTD SVG 20010904//EN"
 "http://www.w3.org/TR/2001/REC-SVG-20010904/DTD/svg10.dtd">
<svg version="1.0" xmlns="http://www.w3.org/2000/svg"
 width="300.000000pt" height="300.000000pt" viewBox="0 0 300.000000 300.000000"
 preserveAspectRatio="xMidYMid meet">
<metadata>
Created by potrace 1.11, written by Peter Selinger 2001-2013
</metadata>
<g transform="translate(0.000000,300.000000) scale(0.100000,-0.100000)"
fill="#000000" stroke="none">
<path d="M1438 2825 c-2 -2 -23 -5 -46 -6 -23 -2 -42 -7 -42 -12 0 -5 -7 -4
-15 3 -11 10 -15 10 -15 0 0 -6 -6 -10 -12 -7 -7 2 -25 0 -41 -4 -19 -5 -25
-4 -21 3 4 6 -6 4 -22 -5 -28 -16 -132 -47 -166 -50 -9 -1 -16 -6 -15 -12 1
-5 -10 -10 -25 -9 -15 0 -24 -4 -21 -9 3 -4 -4 -11 -16 -14 -12 -3 -21 -10
-21 -15 0 -5 -4 -7 -9 -4 -5 3 -33 -10 -62 -29 -30 -19 -57 -35 -62 -35 -4 0
-19 -12 -32 -26 -14 -15 -25 -23 -25 -19 0 4 -7 2 -15 -5 -8 -7 -12 -16 -9
-21 3 -5 -2 -6 -10 -3 -9 3 -16 1 -16 -5 0 -6 -23 -32 -51 -58 -28 -27 -57
-54 -63 -61 -6 -7 -23 -27 -39 -43 -15 -16 -27 -34 -27 -39 0 -6 -4 -10 -10
-10 -5 0 -13 -12 -16 -26 -4 -16 -11 -23 -21 -20 -8 3 -11 1 -8 -4 8 -13 -39
-92 -50 -83 -4 5 -5 3 -2 -3 3 -5 -10 -43 -29 -83 -19 -40 -32 -76 -29 -81 3
-4 -2 -11 -11 -14 -9 -4 -14 -9 -11 -13 4 -3 3 -11 -3 -18 -5 -6 -11 -27 -13
-46 -2 -20 -8 -42 -12 -49 -4 -7 -9 -25 -10 -39 -3 -47 -5 -52 -12 -48 -5 3
-8 -32 -7 -76 1 -107 -1 -114 -38 -114 -23 0 -40 -10 -71 -43 -48 -52 -62
-101 -42 -145 7 -16 34 -82 59 -145 25 -63 50 -128 57 -145 7 -16 13 -32 14
-35 20 -67 23 -85 19 -92 -3 -5 0 -7 7 -6 8 2 16 -15 21 -42 5 -25 15 -58 23
-75 7 -16 18 -49 24 -72 7 -23 15 -45 20 -47 5 -3 12 -27 16 -53 4 -27 11 -53
16 -59 5 -6 10 -19 12 -30 1 -10 5 -23 8 -29 6 -9 52 -144 54 -155 0 -3 7 -16
15 -30 7 -14 12 -27 11 -30 -6 -12 75 -79 117 -97 89 -39 266 -83 392 -98 101
-12 128 -15 190 -19 259 -20 474 -22 670 -6 74 6 147 13 163 15 15 3 42 7 60
10 17 3 65 15 105 25 40 11 78 17 84 14 6 -4 8 -2 5 3 -4 6 8 17 26 24 17 7
38 19 45 26 8 7 17 11 22 8 4 -3 7 3 6 13 0 10 6 17 16 16 10 -1 14 4 11 12
-3 8 0 14 7 14 6 0 9 3 7 8 -7 11 12 54 20 49 5 -3 9 9 10 26 1 17 6 33 11 36
7 5 61 175 66 206 5 31 30 74 40 68 8 -4 8 -3 0 6 -9 10 -5 32 17 92 16 44 29
91 29 105 0 22 4 25 21 21 16 -4 18 -3 9 8 -7 9 -7 21 0 41 25 66 44 103 51
99 4 -3 5 4 2 15 -3 13 0 20 8 20 11 0 11 2 -1 10 -10 6 -11 10 -2 10 6 0 12
8 12 18 0 9 7 26 15 36 8 10 12 23 9 27 -3 5 -1 9 5 9 5 0 15 16 21 35 6 19
16 35 22 35 6 0 9 3 5 6 -3 4 3 24 13 45 11 21 20 47 20 58 0 20 -39 102 -54
113 -12 8 -38 -2 -52 -21 -9 -12 -12 13 -13 103 -2 102 -12 178 -45 321 -1 6
-8 27 -15 47 -7 21 -9 43 -5 50 4 7 3 9 -1 5 -5 -4 -28 33 -52 83 -23 49 -47
90 -53 90 -5 0 -10 7 -10 15 0 39 -236 315 -269 315 -6 0 -11 6 -11 13 0 6
-14 18 -30 26 -17 7 -45 25 -63 40 -17 14 -27 20 -23 12 7 -10 5 -12 -3 -7 -7
5 -10 14 -7 22 4 11 2 12 -14 4 -24 -13 -31 -13 -28 1 3 12 -79 59 -104 59 -9
0 -20 5 -24 12 -5 7 -3 8 6 3 9 -5 11 -4 6 4 -4 6 -11 9 -16 6 -5 -3 -26 1
-46 10 -20 8 -45 15 -56 15 -12 0 -17 4 -12 12 4 6 3 8 -2 5 -5 -3 -39 1 -74
9 -36 8 -90 17 -120 20 -92 8 -217 13 -222 9z m-1130 -1270 c-3 -3 -9 2 -12
12 -6 14 -5 15 5 6 7 -7 10 -15 7 -18z"/>
</g>
</svg>
